<svg height="512" viewBox="0 0 512 512" width="512" xmlns="http://www.w3.org/2000/svg"><g id="Fill_out_line" data-name="Fill out line"><path d="m242.947 256h-112a24 24 0 0 0 -24 24v24h160v-24a24 24 0 0 0 -24-24z" fill="#e0a684"/><path d="m407.77 42.45-36.8198 213.55v48h-104v-24a24.00625 24.00625 0 0 0 -24.0002-24h96.0002l37.73974-218.91a15.76944 15.76944 0 1 1 31.08006 5.36z" fill="#ad693d"/><path d="m392.23 24a15.76609 15.76609 0 0 0 -15.54 13.09l-37.7398 218.91h-136.0002l37.71-218.72a15.99883 15.99883 0 0 1 15.76-13.28z" fill="#dc9265"/><g fill="#bc8d5d"><path d="m130.947 488h-24v-184h48z"/><path d="m266.947 488h-24v-184h48z"/><path d="m346.947 488h24v-184h-48z"/></g><path d="m407.45925 24.45361a23.7173 23.7173 0 0 0 -18.17579-8.45361h-135.81054a23.94016 23.94016 0 0 0 -23.64356 19.9209l-36.56494 212.0791h-65.26416a32.03635 32.03635 0 0 0 -32 32v208a8.00008 8.00008 0 0 0 8 8h24a7.99966 7.99966 0 0 0 7.93262-6.96533l23.09155-177.03467h72.97583v176a8.00008 8.00008 0 0 0 8 8h24a7.99966 7.99966 0 0 0 7.93262-6.96533l23.09131-177.03467h17.95215l23.0913 177.03467a7.99967 7.99967 0 0 0 7.93262 6.96533h24a8.00008 8.00008 0 0 0 8-8v-183.942c0-.01953.00293-.03845.00293-.058v-47.31494l36.70313-212.87549v-.00146a23.72447 23.72447 0 0 0 -5.24707-19.3545zm-161.86231 14.1836a7.97543 7.97543 0 0 1 7.87598-6.63721h113.33984c-.12109.352-.21728.71631-.32226 1.07642-.063.21691-.13672.42871-.19385.64843-.17188.65723-.3208 1.32495-.438 2.00562l-36.59472 212.26953h-119.76367zm-133.59668 241.36279a16.01833 16.01833 0 0 1 16-16h112a16.01833 16.01833 0 0 1 16 16v16h-144zm8.97559 200h-8.97559v-168h30.88867zm136 0h-8.97559v-168h30.88867zm103.02441 0h-8.97558l-21.91309-168h30.88867zm36.93848-438.90771v-.00147l-36.81934 213.5498a8.02987 8.02987 0 0 0 -.11621 1.35938v40h-88.00293v-16a31.79423 31.79423 0 0 0 -4.30517-16h68.3081a7.99379 7.99379 0 0 0 7.88379-6.64111l37.73926-218.9126a7.75055 7.75055 0 0 1 7.65722-6.44629 7.77073 7.77073 0 0 1 7.65528 9.09229z"/></g></svg>